Coordinates
version=1
nRows=8
nColumns=33
inDegrees=yes

Units are S.I. units (second, meters, Newtons, ...)
Angles are in degrees.

endheader
time	ground_thorax_rot_x	ground_thorax_rot_y	ground_thorax_rot_z	ground_thorax_tx	ground_thorax_ty	ground_thorax_tz	clav_prot_r	clav_elev_r	scapula_abduction_r	scapula_elevation_r	scapula_upward_rot_r	scapula_winging_r	shoulder_elv_r	plane_of_elev_r	axial_rot_r	elbow_flexion_r	pro_sup_r	wrist_flex_r	wrist_dev_r	clav_prot_l	clav_elev_l	scapula_abduction_l	scapula_elevation_l	scapula_upward_rot_l	scapula_winging_l	shoulder_elv_l	plane_of_elev_l	axial_rot_l	elbow_flexion_l	pro_sup_l	wrist_flex_l	wrist_dev_l
      7.53000000	    -16.95324992	    -34.25525095	     59.79561506	    -62.22407318	    786.38912207	     20.88287861	      7.89646366	    -45.00000000	     36.44442155	    -45.00000000	    -45.00000000	  -1537.55114959	  -3897.68828786	     27.97610102	     77.70678703	    729.16235613	     27.74366629	     16.64581295	     10.27048097	     12.43137289	     36.37884929	    -28.24525885	    -45.00000000	    -45.00000000	     75.00234910	  -2453.88488427	     19.06984764	    -54.79011458	   -350.47091221	     28.01597899	      8.46008793	    -17.23366723
      7.54000000	    -17.06858447	    -34.17729347	     59.62843264	    -62.42324846	    786.42547594	     20.61322865	      8.26374370	    -45.00000000	     36.48452499	    -45.00000000	    -45.00000000	  -1537.52595690	  -3897.89003558	     28.12341103	     77.44728819	    728.93370270	     27.72767414	     16.64655118	     10.24534142	     12.34795322	     36.38171574	    -28.26499097	    -45.00000000	    -45.00000000	     75.20291099	  -2454.11691581	     19.30812305	    -54.08082291	   -350.64555899	     28.24143551	      8.38368707	    -17.41740723
      7.55000000	    -17.12138339	    -34.17466291	     59.90290809	    -62.71358713	    786.40913960	     20.37072349	      7.99914917	    -45.00000000	     35.99121385	    -45.00000000	    -45.00000000	  -1537.52803156	  -3897.93115112	     27.98087112	     76.73665841	    728.74807924	     27.79728926	     16.68550610	     10.38046812	     12.41674663	     36.46250618	    -28.07378399	    -45.00000000	    -45.00000000	     74.96955164	  -2453.61894455	     19.07480375	    -54.06897383	   -350.52991275	     28.50673608	      8.60652760	    -17.35721097
      7.56000000	    -17.28368434	    -33.95848041	     59.62403669	    -63.09254541	    786.33818638	     20.15741016	      8.13246474	    -45.00000000	     36.32825513	    -45.00000000	    -45.00000000	  -1537.52491799	  -3897.96600184	     28.08889195	     76.48452417	    728.70237439	     28.05782552	     16.72409219	     10.38594471	     12.36823822	     36.33977579	    -28.25907327	    -45.00000000	    -45.00000000	     75.22081132	  -2454.07057227	     19.36793437	    -53.87298635	   -350.69773329	     28.66066798	      8.32452032	    -17.42145470
      7.57000000	    -17.27724279	    -33.90935864	     59.69923630	    -63.56750145	    786.19575885	     20.03054645	      7.92481743	    -45.00000000	     36.22303605	    -45.00000000	    -45.00000000	  -1537.41406922	  -3897.80226407	     27.99384318	     76.10651061	    728.75545086	     28.29368711	     16.86637088	     10.51833575	     12.41162525	     36.54985951	    -28.12708448	    -45.00000000	    -45.00000000	     75.03017062	  -2453.77563505	     19.11258052	    -53.83735648	   -350.46118047	     28.80051914	      8.57367058	    -17.47677363
      7.58000000	    -17.41869343	    -33.77315430	     59.48950446	    -64.11920451	    785.99228135	     19.97684804	      8.03447820	    -45.00000000	     36.36178403	    -45.00000000	    -45.00000000	  -1537.52289476	  -3897.93948880	     28.17395306	     76.00779335	    728.64600870	     28.57983416	     16.78608960	     10.44280134	     12.37029026	     36.25715944	    -28.26290245	    -45.00000000	    -45.00000000	     75.34972294	  -2454.18278902	     19.41917009	    -53.64139156	   -350.74947743	     28.83846381	      8.25795023	    -17.41917720
      7.59000000	    -17.49733827	    -33.67781577	     59.51069200	    -64.74090666	    785.73359285	     19.98294931	      7.94123189	    -45.00000000	     36.27112087	    -45.00000000	    -45.00000000	  -1537.39406911	  -3897.76237653	     28.02080837	     75.86456608	    728.64496402	     28.82771994	     16.90359799	     10.54921872	     12.42290135	     36.55097954	    -28.22334259	    -45.00000000	    -45.00000000	     75.09634713	  -2453.79978348	     19.14660719	    -53.64531270	   -350.64669253	     28.90622958	      8.58728153	    -17.49730816
      7.60000000	    -17.62102551	    -33.60792370	     59.36821380	    -65.40063149	    785.44470896	     19.99161963	      7.96018471	    -45.00000000	     36.34480838	    -45.00000000	    -45.00000000	  -1537.54388290	  -3897.86548100	     28.14521575	     75.80445563	    728.65927245	     29.02367833	     16.86978148	     10.50623643	     12.38880366	     36.33363438	    -28.27056851	    -45.00000000	    -45.00000000	     75.38958764	  -2454.05068379	     19.39838369	    -53.48236312	   -350.81915668	     28.86444964	      8.34592285	    -17.43406072
